# 3ds Max Wavefront OBJ Exporter v0.97b - (c)2007 guruware
# File Created: 14.04.2017 23:02:28

mtllib arrow.mtl

#
# object Box001
#

v  -18.4352 -65.1629 3.6921
v  -18.4352 -65.1629 3.4242
v  21.8117 -65.1629 3.4242
v  21.8117 -65.1629 3.6921
v  -18.4352 100.2202 22.0537
v  21.8117 100.2202 22.0537
v  21.8117 100.2202 -14.8401
v  -18.4352 100.2202 -14.8401
v  -18.4352 0.0000 22.0537
v  21.8117 0.0000 22.0537
v  21.8117 63.1767 22.0537
v  -18.4352 63.1767 22.0537
v  21.8117 0.0000 -14.8401
v  21.8117 63.1767 -14.8401
v  -18.4352 0.0000 -14.8401
v  -18.4352 63.1767 -14.8401
v  -18.4352 -41.0846 -14.8401
v  -18.4352 -41.0846 22.0537
v  -18.4352 0.0000 -39.5919
v  21.8117 0.0000 -39.5919
v  21.8117 -41.0846 -14.8446
v  -18.4352 -41.0846 -14.8446
v  21.8117 -41.0846 22.0537
v  21.8117 -41.0846 -14.8401
v  21.8117 0.0000 45.1217
v  -18.4352 0.0000 45.1217
v  -18.4352 -41.0846 22.1881
v  21.8117 -41.0846 22.1881
v  21.8117 -65.1629 5.0157
v  -18.4352 -65.1629 5.0157
v  -18.4352 -65.1629 2.9308
v  21.8117 -65.1629 2.9308
# 32 vertices

vn 0.0000 -1.0000 -0.0000
vn 0.0000 1.0000 -0.0000
vn 0.0000 0.0000 1.0000
vn 1.0000 0.0000 -0.0000
vn 0.0000 0.0000 -1.0000
vn -1.0000 0.0000 -0.0000
vn 0.0000 -0.5160 -0.8566
vn 0.0000 -0.4874 0.8732
vn 0.0000 -0.5939 -0.8045
vn 0.0000 -0.5806 0.8142
# 10 vertex normals

vt 1.0000 0.0000 0.0000
vt 1.0000 1.0000 0.0000
vt 0.0000 1.0000 0.0000
vt 0.0000 0.0000 0.0000
# 4 texture coords

g Box001
usemtl wire_027177148
s 2
f 1/1/1 2/2/1 3/3/1 4/4/1 
s 4
f 5/4/2 6/1/2 7/2/2 8/3/2 
s 8
f 9/4/3 10/1/3 11/2/3 12/3/3 
s 16
f 10/4/4 13/1/4 14/2/4 11/3/4 
s 32
f 13/4/5 15/1/5 16/2/5 14/3/5 
s 64
f 15/4/6 9/1/6 12/2/6 16/3/6 
s off
f 12/4/3 11/1/3 6/1/3 5/4/3 
f 11/1/4 14/2/4 7/2/4 6/1/4 
f 14/2/5 16/3/5 8/3/5 7/2/5 
f 16/3/6 12/4/6 5/4/6 8/3/6 
f 9/1/6 15/2/6 17/2/6 18/1/6 
f 19/2/7 20/3/7 21/3/7 22/2/7 
f 13/3/4 10/4/4 23/4/4 24/3/4 
f 25/4/8 26/1/8 27/1/8 28/4/8 
f 10/4/2 9/1/2 26/1/2 25/4/2 
f 9/1/6 18/1/6 27/1/6 26/1/6 
f 1/1/1 4/4/1 29/4/1 30/1/1 
f 23/4/4 10/4/4 25/4/4 28/4/4 
f 15/2/2 13/3/2 20/3/2 19/2/2 
f 13/3/4 24/3/4 21/3/4 20/3/4 
f 3/3/1 2/2/1 31/2/1 32/3/1 
f 17/2/6 15/2/6 19/2/6 22/2/6 
f 18/1/6 17/2/6 2/2/6 1/1/6 
f 17/2/6 22/2/6 31/2/6 2/2/6 
f 22/2/9 21/3/9 32/3/9 31/2/9 
f 21/3/4 24/3/4 3/3/4 32/3/4 
f 24/3/4 23/4/4 4/4/4 3/3/4 
f 23/4/4 28/4/4 29/4/4 4/4/4 
f 28/4/10 27/1/10 30/1/10 29/4/10 
f 27/1/6 18/1/6 1/1/6 30/1/6 
# 30 polygons

